<?xml version="1.0" encoding="UTF-8" standalone="no"?>
<!-- Created with Inkscape (http://www.inkscape.org/) -->

<svg
   width="32"
   height="32"
   viewBox="0 0 8.4666665 8.4666669"
   version="1.1"
   id="svg1065"
   inkscape:version="1.1 (c68e22c387, 2021-05-23)"
   sodipodi:docname="mateo-o..svg"
   xmlns:inkscape="http://www.inkscape.org/namespaces/inkscape"
   xmlns:sodipodi="http://sodipodi.sourceforge.net/DTD/sodipodi-0.dtd"
   xmlns="http://www.w3.org/2000/svg"
   xmlns:svg="http://www.w3.org/2000/svg">
  <sodipodi:namedview
     id="namedview1067"
     pagecolor="#ffffff"
     bordercolor="#666666"
     borderopacity="1.0"
     inkscape:pageshadow="2"
     inkscape:pageopacity="0.0"
     inkscape:pagecheckerboard="0"
     inkscape:document-units="mm"
     showgrid="false"
     units="px"
     inkscape:zoom="12.443434"
     inkscape:cx="23.988554"
     inkscape:cy="30.337284"
     inkscape:window-width="2560"
     inkscape:window-height="1387"
     inkscape:window-x="-8"
     inkscape:window-y="-8"
     inkscape:window-maximized="1"
     inkscape:current-layer="layer1" />
  <defs
     id="defs1062" />
  <g
     inkscape:label="Layer 1"
     inkscape:groupmode="layer"
     id="layer1">
    <g
       id="g1165"
       transform="matrix(0.26185265,0,0,0.26185265,-15.122986,-23.920808)">
      <g
         id="g856"
         transform="matrix(0.35277777,0,0,-0.35277777,71.330688,110.30263)">
        <path
           d="m 0,0 c 0,-4.236 1.561,-8.031 4.677,-11.386 3.121,-3.355 6.862,-5.03 11.228,-5.03 4.258,0 7.972,1.675 11.147,5.03 3.165,3.355 4.753,7.15 4.753,11.386 v 14.247 c 0,4.127 -1.588,7.846 -4.753,11.147 C 23.877,28.7 20.163,30.353 15.905,30.353 11.539,30.353 7.798,28.7 4.677,25.394 1.561,22.093 0,18.374 0,14.247 Z m -16.372,-0.049 v 14.344 c 0,8.211 3.17,15.383 9.51,21.517 6.341,6.128 13.931,9.195 22.767,9.195 8.624,0 16.16,-3.04 22.604,-9.119 6.444,-6.079 9.668,-13.279 9.668,-21.593 V -0.049 c 0,-8.107 -3.251,-15.306 -9.744,-21.593 -6.497,-6.291 -14.007,-9.434 -22.528,-9.434 -8.63,0 -16.166,3.121 -22.609,9.358 -6.443,6.238 -9.668,13.458 -9.668,21.669"
           style="fill:#3db5a1;fill-opacity:1;fill-rule:nonzero;stroke:none"
           id="path858" />
      </g>
      <g
         id="g860"
         transform="matrix(0.35277777,0,0,-0.35277777,74.896358,104.69008)">
        <path
           d="M 0,0 -7.63,-9.265 8.931,-23.159 41.109,12.444 32.151,21.882 7.296,-10.624 Z"
           style="fill:#db9b35;fill-opacity:1;fill-rule:nonzero;stroke:none"
           id="path862" />
      </g>
      <g
         id="g864"
         transform="matrix(0.35277777,0,0,-0.35277777,74.896358,104.69008)">
        <path
           d="M 0,0 -7.63,-9.265 8.931,-23.159 41.109,12.444 32.151,21.882 7.296,-10.624 Z"
           style="fill:none;stroke:#ffffff;stroke-width:0.75;stroke-linecap:butt;stroke-linejoin:miter;stroke-miterlimit:10;stroke-dasharray:none;stroke-opacity:1"
           id="path866" />
      </g>
    </g>
  </g>
</svg>
